<?xml version="1.0" standalone="no"?><!DOCTYPE svg PUBLIC "-//W3C//DTD SVG 1.1//EN" "http://www.w3.org/Graphics/SVG/1.1/DTD/svg11.dtd"><svg t="1515142498433" class="icon" style="" viewBox="0 0 1024 1024" version="1.1" xmlns="http://www.w3.org/2000/svg" p-id="3512" xmlns:xlink="http://www.w3.org/1999/xlink" width="200" height="200"><defs><style type="text/css"></style></defs><path d="M565.248 524.8h-1.536 3.072-1.536z m22.528 22.016zM769.536 326.144h-122.368c-12.288 0-22.528 9.728-22.528 22.528 0 12.8 10.24 22.528 22.528 22.528h68.608l-97.28 97.28c-4.096 4.096-6.656 9.728-6.656 15.872 0 5.632 2.56 11.776 6.656 15.872 4.096 4.096 9.728 6.656 15.872 6.656 6.144 0 11.776-2.56 15.872-6.656l97.28-97.28V471.04c0 12.288 10.24 22.528 22.528 22.528 12.288 0 22.528-9.728 22.528-22.528V348.672c0-6.144-2.56-11.776-6.656-15.872-4.608-4.608-10.24-6.656-16.384-6.656z" p-id="3513" fill="#e6e6e6"></path><path d="M848.384 249.344H210.432c-11.776 0-22.016 9.728-22.016 22.016v524.8c0 12.288 9.728 22.016 22.016 22.016h637.952c12.288 0 22.016-9.728 22.016-22.016V271.872c0.512-12.288-9.216-22.528-22.016-22.528zM542.72 774.144H233.472v-204.288H542.72v204.288z m283.136 0h-238.08v-227.328c-0.512-11.776-9.216-20.992-20.992-22.016H233.472v-230.4h592.896l-0.512 479.744z" p-id="3514" fill="#e6e6e6"></path></svg>