<?xml version="1.0" standalone="no"?><!DOCTYPE svg PUBLIC "-//W3C//DTD SVG 1.1//EN" "http://www.w3.org/Graphics/SVG/1.1/DTD/svg11.dtd"><svg t="1515142548482" class="icon" style="" viewBox="0 0 1024 1024" version="1.1" xmlns="http://www.w3.org/2000/svg" p-id="4914" xmlns:xlink="http://www.w3.org/1999/xlink" width="200" height="200"><defs><style type="text/css"></style></defs><path d="M78.769231 157.774769v708.450462A78.769231 78.769231 0 0 0 157.774769 945.230769h708.450462A78.769231 78.769231 0 0 0 945.230769 866.225231V157.774769A78.769231 78.769231 0 0 0 866.225231 78.769231H157.774769A78.769231 78.769231 0 0 0 78.769231 157.774769z m-78.769231 0A157.538462 157.538462 0 0 1 157.774769 0h708.450462A157.538462 157.538462 0 0 1 1024 157.774769v708.450462A157.538462 157.538462 0 0 1 866.225231 1024H157.774769A157.538462 157.538462 0 0 1 0 866.225231V157.774769z" fill="#e6e6e6" p-id="4915"></path><path d="M362.653538 717.115077L472.615385 827.076923V551.384615H196.923077l109.961846 109.961847-137.846154 137.846153 55.768616 55.768616 137.846153-137.846154zM661.346462 306.884923L551.384615 196.923077V472.615385h275.692308L717.115077 362.653538l137.846154-137.846153-55.768616-55.768616-137.846153 137.846154z" fill="#e6e6e6" p-id="4916"></path></svg>