<?xml version="1.0" standalone="no"?><!DOCTYPE svg PUBLIC "-//W3C//DTD SVG 1.1//EN" "http://www.w3.org/Graphics/SVG/1.1/DTD/svg11.dtd"><svg t="1517475739903" class="icon" style="" viewBox="0 0 1024 1024" version="1.1" xmlns="http://www.w3.org/2000/svg" p-id="4527" xmlns:xlink="http://www.w3.org/1999/xlink" width="200" height="200"><defs><style type="text/css"></style></defs><path d="M652.8 204.8l-230.4 153.6h-76.8c-28.16 0-51.2 23.04-51.2 51.2v204.8c0 28.16 23.04 51.2 51.2 51.2h76.8l230.4 153.6c28.16 0 51.2-23.04 51.2-51.2V256c0-28.16-23.04-51.2-51.2-51.2z m-230.4 384c0 15.36-10.24 25.6-25.6 25.6h-25.6c-15.36 0-25.6-10.24-25.6-25.6v-153.6c0-15.36 10.24-25.6 25.6-25.6h25.6c15.36 0 25.6 10.24 25.6 25.6v153.6z m230.4 179.2l-179.2-112.64V368.64l179.2-112.64v512z" p-id="4528"></path></svg>