<?xml version="1.0" standalone="no"?><!DOCTYPE svg PUBLIC "-//W3C//DTD SVG 1.1//EN" "http://www.w3.org/Graphics/SVG/1.1/DTD/svg11.dtd"><svg t="1519723422396" class="icon" style="" viewBox="0 0 1024 1024" version="1.1" xmlns="http://www.w3.org/2000/svg" p-id="2763" xmlns:xlink="http://www.w3.org/1999/xlink" width="200" height="200"><defs><style type="text/css"></style></defs><path d="M512 512m-512 0a512 512 0 1 0 1024 0 512 512 0 1 0-1024 0Z" fill="#38454F" p-id="2764"></path><path d="M325.331862 353.103448h-146.944A37.146483 37.146483 0 0 0 141.241379 390.249931v225.862621C141.241379 636.610207 157.872552 653.241379 178.387862 653.241379h146.944c6.62069 0 13.117793 1.765517 18.838069 5.12L579.61931 877.568c24.752552 14.565517 55.966897-3.283862 55.966897-32.008828V160.785655c0-28.724966-31.214345-46.574345-55.966897-32.008827L344.169931 347.983448c-5.720276 3.354483-12.217379 5.12-18.838069 5.12z" fill="#7383BF" p-id="2765"></path><path d="M706.206897 670.896552a17.637517 17.637517 0 0 1-12.482207-30.13738c75.864276-75.864276 75.864276-199.309241 0-275.173517a17.637517 17.637517 0 1 1 24.964413-24.964414c89.63531 89.63531 89.63531 235.467034 0 325.102345A17.602207 17.602207 0 0 1 706.206897 670.896552z" fill="#EFCE4A" p-id="2766"></path></svg>