<?xml version="1.0" standalone="no"?><!DOCTYPE svg PUBLIC "-//W3C//DTD SVG 1.1//EN" "http://www.w3.org/Graphics/SVG/1.1/DTD/svg11.dtd"><svg t="1519723198350" class="icon" style="" viewBox="0 0 1024 1024" version="1.1" xmlns="http://www.w3.org/2000/svg" p-id="2630" xmlns:xlink="http://www.w3.org/1999/xlink" width="200" height="200"><defs><style type="text/css"></style></defs><path d="M512 512m-512 0a512 512 0 1 0 1024 0 512 512 0 1 0-1024 0Z" fill="#38454F" p-id="2631"></path><path d="M290.021517 353.103448H143.077517A37.146483 37.146483 0 0 0 105.931034 390.249931v225.862621C105.931034 636.610207 122.562207 653.241379 143.077517 653.241379h146.944c6.62069 0 13.117793 1.765517 18.838069 5.12L544.308966 877.568c24.752552 14.565517 55.966897-3.283862 55.966896-32.008828V160.785655c0-28.724966-31.214345-46.574345-55.966896-32.008827L308.859586 347.983448c-5.720276 3.354483-12.217379 5.12-18.838069 5.12z" fill="#7383BF" p-id="2632"></path><path d="M733.413517 742.258759a17.637517 17.637517 0 0 1-12.482207-30.13738c110.132966-110.132966 110.132966-289.368276 0-399.501241a17.637517 17.637517 0 1 1 24.964414-24.964414c123.904 123.921655 123.904 325.526069 0 449.430069a17.655172 17.655172 0 0 1-12.482207 5.172966z" fill="#EFCE4A" p-id="2633"></path><path d="M670.896552 670.896552a17.637517 17.637517 0 0 1-12.482207-30.13738c75.864276-75.864276 75.864276-199.309241 0-275.173517a17.637517 17.637517 0 1 1 24.964414-24.964414c89.63531 89.63531 89.63531 235.467034 0 325.102345A17.602207 17.602207 0 0 1 670.896552 670.896552z" fill="#EFCE4A" p-id="2634"></path><path d="M785.231448 829.793103a17.637517 17.637517 0 0 1-12.482207-30.137379c76.905931-76.888276 119.26069-179.058759 119.26069-287.655724s-42.354759-210.767448-119.26069-287.655724a17.637517 17.637517 0 1 1 24.964414-24.964414c83.579586 83.561931 129.606621 194.577655 129.606621 312.620138s-46.027034 229.058207-129.606621 312.620138a17.602207 17.602207 0 0 1-12.482207 5.172965z" fill="#EFCE4A" p-id="2635"></path></svg>