<?xml version="1.0" standalone="no"?><!DOCTYPE svg PUBLIC "-//W3C//DTD SVG 1.1//EN" "http://www.w3.org/Graphics/SVG/1.1/DTD/svg11.dtd"><svg t="1518169982495" class="icon" style="" viewBox="0 0 1024 1024" version="1.1" xmlns="http://www.w3.org/2000/svg" p-id="9056" xmlns:xlink="http://www.w3.org/1999/xlink" width="200" height="200"><defs><style type="text/css"></style></defs><path d="M509.881 510.652m-446.547 0a446.547 446.547 0 1 0 893.094 0 446.547 446.547 0 1 0-893.094 0Z" fill="#77B3D4" p-id="9057"></path><path d="M356.38 561.824c-19.269 0-34.887-15.617-34.887-34.887V424.594c0-103.883 84.511-188.387 188.387-188.387 64.172 0 123.322 32.202 158.229 86.126 10.473 16.176 5.846 37.776-10.33 48.242-16.19 10.466-37.769 5.846-48.242-10.33-21.995-33.973-59.253-54.265-99.658-54.265-65.405 0-118.614 53.216-118.614 118.614v102.343c0.002 19.27-15.616 34.887-34.885 34.887z" fill="#231F20" p-id="9058"></path><path d="M356.38 533.915c-19.269 0-34.887-15.617-34.887-34.887V396.685c0-103.883 84.511-188.387 188.387-188.387 64.172 0 123.322 32.202 158.229 86.126 10.473 16.176 5.846 37.776-10.33 48.242-16.19 10.466-37.769 5.846-48.242-10.33-21.995-33.973-59.253-54.265-99.658-54.265-65.405 0-118.614 53.216-118.614 118.614v102.343c0.002 19.269-15.616 34.887-34.885 34.887zM509.881 510.652c-30.828 0-55.818 24.99-55.818 55.818 0 20.608 11.295 38.407 27.909 48.076v35.651c0 15.414 12.496 27.909 27.909 27.909s27.909-12.496 27.909-27.909v-35.651c16.615-9.67 27.909-27.468 27.909-48.076 0-30.827-24.99-55.818-55.818-55.818z" fill="#4F5D73" p-id="9059"></path><path d="M719.2 440.879H300.562c-23.121 0-41.864 18.743-41.864 41.864v265.138c0 23.121 18.743 41.864 41.864 41.864H719.2c23.121 0 41.864-18.743 41.864-41.864V482.743c0-23.121-18.743-41.864-41.864-41.864zM537.79 642.456v35.651c0 15.414-12.496 27.909-27.909 27.909s-27.909-12.496-27.909-27.909v-35.651c-16.615-9.67-27.909-27.468-27.909-48.076 0-30.828 24.99-55.818 55.818-55.818s55.818 24.99 55.818 55.818c0 20.608-11.295 38.407-27.909 48.076z" fill="#231F20" p-id="9060"></path><path d="M719.2 412.97H300.562c-23.121 0-41.864 18.743-41.864 41.864v265.138c0 23.121 18.743 41.864 41.864 41.864H719.2c23.121 0 41.864-18.743 41.864-41.864V454.834c0-23.121-18.743-41.864-41.864-41.864zM537.79 614.547v35.651c0 15.414-12.496 27.909-27.909 27.909s-27.909-12.496-27.909-27.909v-35.651c-16.615-9.67-27.909-27.468-27.909-48.076 0-30.828 24.99-55.818 55.818-55.818s55.818 24.99 55.818 55.818c0 20.608-11.295 38.406-27.909 48.076z" fill="#FFFFFF" p-id="9061"></path></svg>